<svg id="svg" version="1.1" xmlns="http://www.w3.org/2000/svg" xmlns:xlink="http://www.w3.org/1999/xlink" width="400" height="387.42674480554075" viewBox="0, 0, 400,387.42674480554075"><g id="svgg"><path id="path0" d="M220.352 54.995 C 218.769 55.084,216.863 55.223,216.115 55.302 L 214.754 55.448 214.893 56.759 C 217.729 83.574,205.895 107.453,183.197 120.720 C 169.979 128.445,152.382 131.437,137.953 128.412 L 136.629 128.135 133.915 133.913 C 132.422 137.091,130.643 140.873,129.961 142.318 L 128.722 144.944 129.750 146.047 C 140.654 157.744,152.348 177.450,162.650 201.492 C 168.306 214.692,176.533 236.760,178.500 244.006 C 188.082 279.321,203.023 305.141,222.270 319.645 C 224.268 321.151,224.536 321.249,225.521 320.835 C 225.825 320.707,225.979 320.877,226.333 321.727 C 226.849 322.968,228.335 323.940,233.564 326.450 C 240.970 330.006,246.535 331.296,250.346 330.339 C 251.658 330.010,251.667 329.985,250.800 328.905 C 239.948 315.384,235.242 294.930,238.942 277.357 C 239.556 274.441,239.557 274.453,238.175 270.005 C 235.981 262.942,234.246 255.638,233.030 248.343 C 232.582 245.660,232.430 245.129,232.021 244.820 C 231.558 244.471,231.553 244.434,231.894 243.858 C 232.214 243.316,232.220 243.050,231.958 241.023 C 225.838 193.690,240.718 146.690,269.666 121.917 C 288.830 105.518,314.358 100.987,334.684 110.377 C 337.069 111.479,337.064 111.504,335.105 108.643 C 310.550 72.783,266.880 52.367,220.352 54.995 M315.930 109.885 C 273.791 114.244,244.006 160.812,242.581 224.560 C 242.498 228.265,242.524 230.581,242.647 230.581 C 242.757 230.581,243.464 229.958,244.218 229.197 L 245.588 227.814 246.293 228.497 L 246.998 229.180 244.863 231.323 L 242.728 233.465 242.728 234.957 C 242.728 239.033,243.671 249.549,244.553 255.301 C 245.286 260.078,245.167 259.891,246.257 257.976 C 253.466 245.328,266.233 234.626,279.808 229.850 C 281.039 229.417,282.286 228.975,282.579 228.867 C 283.109 228.672,285.134 228.109,286.261 227.843 L 286.854 227.704 286.919 221.417 C 287.230 191.598,305.043 163.476,329.036 154.927 C 335.968 152.457,338.093 152.054,344.166 152.061 C 362.703 152.082,376.083 163.334,380.265 182.419 C 382.256 191.507,381.354 201.981,377.937 209.424 L 377.231 210.963 378.801 212.485 C 386.351 219.806,386.587 231.392,379.342 238.969 C 367.932 250.901,348.094 243.480,347.020 226.878 L 346.872 224.590 345.999 224.145 C 343.487 222.868,340.789 220.561,338.831 218.013 C 337.666 216.498,337.490 216.362,335.661 215.557 C 334.596 215.088,333.724 214.682,333.724 214.655 C 333.724 214.486,334.427 212.893,334.502 212.893 C 334.552 212.893,334.987 213.094,335.468 213.339 C 336.136 213.680,336.314 213.711,336.221 213.471 C 333.068 205.253,335.348 196.608,341.776 192.409 C 345.983 189.662,351.174 190.615,354.032 194.659 L 354.493 195.312 353.965 194.932 C 349.112 191.440,342.677 194.774,340.869 201.716 C 339.596 206.602,342.534 213.424,347.173 216.357 C 348.973 217.494,348.926 217.500,349.833 216.029 C 353.290 210.429,360.054 206.901,366.818 207.169 L 368.751 207.246 369.255 205.967 C 375.410 190.346,367.667 170.108,353.934 165.919 C 328.912 158.287,301.228 187.218,299.703 222.593 L 299.564 225.824 303.325 225.971 C 331.095 227.055,355.122 245.054,362.818 270.538 C 363.031 271.241,363.233 271.854,363.269 271.899 C 363.522 272.224,372.635 266.842,376.463 264.106 C 377.805 263.147,378.903 262.445,378.903 262.547 C 378.903 263.486,370.604 270.988,366.383 273.865 C 365.181 274.684,364.201 275.422,364.203 275.504 C 364.206 275.586,364.308 276.084,364.430 276.612 C 365.343 280.564,365.763 284.622,365.781 289.648 L 365.796 294.266 366.824 292.656 C 372.038 284.487,376.366 274.486,378.660 265.312 C 379.484 262.014,379.485 262.014,380.952 260.049 C 400.677 233.629,405.855 189.423,392.716 159.616 C 385.831 143.996,374.679 130.872,360.747 121.991 C 354.109 117.760,343.936 113.375,338.504 112.404 C 338.044 112.322,337.471 112.076,337.231 111.859 C 335.835 110.590,321.739 109.284,315.930 109.885 M113.460 124.332 C 110.543 130.312,110.577 130.057,112.557 131.273 C 113.416 131.801,114.199 132.232,114.298 132.232 C 114.397 132.232,115.563 129.885,116.890 127.017 L 119.303 121.801 118.273 121.238 C 117.707 120.928,116.897 120.461,116.475 120.199 L 115.706 119.724 113.460 124.332 M311.135 206.784 L 313.159 207.032 313.227 207.860 C 313.321 209.001,313.238 209.029,310.709 208.722 C 309.478 208.572,307.920 208.443,307.246 208.434 L 306.020 208.418 306.020 207.459 L 306.020 206.500 307.565 206.518 C 308.415 206.528,310.021 206.648,311.135 206.784 M284.349 208.364 C 284.400 208.452,284.502 208.865,284.577 209.280 L 284.713 210.037 283.379 210.308 C 282.226 210.543,278.671 211.499,277.973 211.761 C 277.842 211.811,277.681 211.582,277.614 211.253 C 277.548 210.924,277.433 210.497,277.358 210.304 C 277.200 209.897,277.987 209.596,281.406 208.756 C 283.727 208.186,284.211 208.121,284.349 208.364 M324.028 209.298 C 325.786 209.784,327.307 210.256,327.407 210.346 C 327.633 210.548,327.164 212.040,326.875 212.040 C 326.684 212.040,320.248 210.326,320.149 210.248 C 320.051 210.172,320.575 208.418,320.697 208.416 C 320.771 208.415,322.270 208.812,324.028 209.298 M270.709 213.266 C 271.089 214.203,271.073 214.226,269.686 214.777 C 269.100 215.010,267.698 215.631,266.572 216.157 L 264.524 217.114 264.175 216.381 C 263.755 215.502,263.743 215.318,264.092 215.168 C 264.238 215.105,265.605 214.474,267.128 213.767 C 270.416 212.240,270.301 212.256,270.709 213.266 M257.868 219.834 C 258.127 220.254,258.255 220.670,258.152 220.761 C 258.049 220.852,257.054 221.542,255.940 222.295 C 254.827 223.048,253.600 223.899,253.215 224.185 L 252.514 224.706 251.997 224.074 C 251.376 223.314,251.349 223.089,251.838 222.762 C 252.043 222.625,253.314 221.742,254.662 220.801 C 257.532 218.797,257.275 218.875,257.868 219.834 M228.819 251.247 L 229.507 251.667 229.101 252.365 C 228.877 252.749,228.193 254.166,227.582 255.514 C 226.970 256.862,226.450 257.990,226.427 258.021 C 226.385 258.076,224.785 257.448,224.652 257.324 C 224.503 257.185,227.678 250.826,227.896 250.827 C 228.025 250.827,228.440 251.016,228.819 251.247 M377.915 255.204 C 379.570 258.833,379.538 258.645,378.573 259.048 C 377.639 259.438,377.566 259.393,377.087 258.132 C 376.875 257.571,376.235 256.157,375.665 254.990 L 374.630 252.867 375.328 252.494 C 376.413 251.916,376.419 251.922,377.915 255.204 M223.090 264.485 C 223.916 264.773,223.918 264.674,223.036 267.774 C 222.637 269.177,222.248 270.625,222.172 270.992 C 222.045 271.605,220.732 271.736,220.187 271.190 C 220.097 271.100,220.881 267.967,221.443 266.169 C 221.682 265.408,221.914 264.664,221.960 264.518 C 222.062 264.191,222.232 264.186,223.090 264.485 M220.605 279.382 C 220.569 279.792,220.450 280.943,220.341 281.939 C 220.231 282.936,220.141 284.206,220.140 284.763 L 220.139 285.775 219.180 285.775 L 218.221 285.775 218.221 284.443 C 218.222 283.200,218.542 279.830,218.755 278.834 C 218.947 277.934,220.688 278.450,220.605 279.382 M220.138 295.702 C 220.256 297.216,220.406 298.801,220.472 299.225 C 220.591 299.990,220.587 299.995,219.698 300.137 C 218.502 300.329,218.475 300.242,218.125 295.005 L 217.994 293.046 218.906 292.980 C 219.408 292.944,219.843 292.922,219.872 292.932 C 219.901 292.941,220.021 294.188,220.138 295.702 M222.040 308.469 C 222.191 309.229,222.584 310.769,222.912 311.891 L 223.509 313.931 223.049 314.103 C 221.480 314.689,221.541 314.781,220.448 310.210 C 219.753 307.305,219.729 307.372,221.538 307.118 C 221.663 307.100,221.889 307.708,222.040 308.469 " stroke="none" fill="#e38b2c" fill-rule="evenodd"></path><path id="path1" d="M361.920 207.670 C 340.165 212.670,343.517 244.531,365.796 244.516 C 387.182 244.502,391.635 214.655,371.231 208.098 C 368.985 207.377,364.163 207.155,361.920 207.670 M296.430 226.230 C 265.103 229.747,242.723 251.286,238.212 282.259 C 237.832 284.867,237.839 295.212,238.223 297.922 C 240.335 312.854,246.278 324.941,256.566 335.229 C 266.839 345.502,278.196 351.105,293.767 353.582 C 296.135 353.959,307.201 353.956,309.750 353.578 C 320.498 351.985,329.846 348.436,337.759 342.946 C 338.513 342.423,339.328 341.916,339.570 341.819 C 340.058 341.625,340.387 341.373,343.179 339.054 C 346.288 336.471,350.202 332.378,352.762 329.032 C 354.247 327.092,355.611 325.083,356.635 323.331 C 356.753 323.128,357.205 322.364,357.640 321.632 C 358.755 319.753,360.438 316.194,361.646 313.159 C 363.352 308.877,364.834 302.922,365.493 297.709 C 365.839 294.973,365.629 284.351,365.170 281.337 C 360.755 252.364,339.249 230.892,310.369 226.623 C 308.168 226.298,298.303 226.019,296.430 226.230 M332.327 245.206 C 346.508 248.233,351.897 265.800,341.897 276.401 C 330.273 288.723,309.560 280.463,309.560 263.506 C 309.560 251.491,320.517 242.685,332.327 245.206 M263.612 298.668 L 263.612 317.315 274.061 317.315 L 284.510 317.315 284.450 319.712 L 284.390 322.110 271.337 322.165 L 258.284 322.220 258.284 301.120 L 258.284 280.021 260.948 280.021 L 263.612 280.021 263.612 298.668 M336.426 291.116 C 340.913 291.726,343.600 293.477,344.650 296.476 C 344.815 296.948,344.932 300.601,345.010 307.690 L 345.125 318.205 345.723 318.719 C 346.197 319.126,346.562 319.233,347.481 319.233 L 348.641 319.233 348.641 321.032 C 348.641 323.114,348.784 322.948,346.690 323.298 C 343.481 323.835,341.328 322.776,340.599 320.301 L 340.241 319.085 339.700 319.597 C 331.637 327.216,318.615 322.778,320.263 312.973 C 321.146 307.720,323.664 306.113,333.146 304.751 C 339.725 303.807,340.249 303.458,340.075 300.141 C 339.909 296.987,338.289 295.768,334.059 295.613 C 329.685 295.454,327.408 296.653,326.681 299.499 C 326.558 299.980,326.417 300.493,326.368 300.639 C 326.281 300.900,321.794 301.051,321.544 300.802 C 321.272 300.530,321.858 297.490,322.408 296.324 C 324.297 292.314,329.906 290.230,336.426 291.116 M294.299 303.010 C 294.299 312.606,294.348 314.416,294.627 315.210 C 296.381 320.197,303.598 320.508,306.854 315.737 C 308.516 313.301,308.791 311.075,308.791 300.062 L 308.791 291.742 311.135 291.742 L 313.479 291.742 313.479 306.979 L 313.479 322.216 311.348 322.216 L 309.217 322.216 309.217 320.176 L 309.217 318.136 307.459 319.925 C 301.713 325.770,291.560 324.218,289.688 317.208 C 289.466 316.379,289.402 313.439,289.401 303.942 L 289.398 291.742 291.849 291.742 L 294.299 291.742 294.299 303.010 M339.466 307.506 C 339.106 307.717,335.926 308.345,332.552 308.872 C 327.162 309.714,325.332 311.098,325.314 314.348 C 325.281 320.180,335.276 320.802,339.296 315.218 L 340.011 314.225 340.082 310.762 C 340.122 308.857,340.074 307.302,339.976 307.305 C 339.878 307.309,339.648 307.399,339.466 307.506 " stroke="none" fill="#191c6b" fill-rule="evenodd"></path><path id="path2" d="M134.363 17.195 C 92.319 20.864,73.711 73.303,103.676 103.671 C 134.616 135.027,187.184 112.433,187.210 67.768 C 187.228 38.018,162.869 14.707,134.363 17.195 M42.834 23.257 C 9.730 26.640,-7.078 66.377,13.072 93.624 C 32.791 120.287,73.607 114.953,86.166 84.070 L 87.119 81.726 86.704 80.128 C 84.693 72.391,84.347 62.646,85.782 54.174 C 86.446 50.254,86.474 50.641,85.361 48.260 C 77.559 31.564,60.380 21.464,42.834 23.257 M153.223 32.710 C 177.854 36.393,190.301 66.365,176.058 87.693 C 157.118 116.053,114.280 102.075,114.340 67.555 C 114.377 45.922,132.567 29.622,153.223 32.710 M59.692 36.862 C 82.783 41.329,92.107 69.280,76.578 87.480 C 62.940 103.464,37.727 99.887,28.647 80.681 C 18.116 58.404,36.550 32.386,59.692 36.862 M324.880 245.165 C 308.873 248.345,304.158 268.720,317.164 278.512 C 328.946 287.383,346.097 279.334,346.868 264.571 C 347.499 252.482,336.576 242.841,324.880 245.165 M258.427 280.163 C 258.348 280.242,258.284 289.687,258.284 301.154 L 258.284 322.003 271.284 322.003 L 284.283 322.003 284.283 319.659 L 284.283 317.315 273.948 317.315 L 263.612 317.315 263.612 298.668 L 263.612 280.021 261.090 280.021 C 259.703 280.021,258.505 280.085,258.427 280.163 M329.781 291.427 C 324.731 292.537,322.183 295.034,321.688 299.361 L 321.535 300.693 323.885 300.693 L 326.235 300.693 326.565 299.574 C 327.424 296.667,329.547 295.360,333.396 295.368 C 338.069 295.379,340.196 296.980,340.214 300.500 L 340.224 302.430 339.445 303.144 C 338.525 303.987,337.817 304.210,334.683 304.643 C 324.120 306.104,321.565 307.471,320.508 312.230 C 318.328 322.044,329.933 327.008,338.909 320.102 C 339.709 319.486,340.384 319.015,340.409 319.054 C 340.434 319.094,340.574 319.596,340.720 320.169 C 341.381 322.774,343.814 323.828,347.436 323.076 L 348.641 322.825 348.641 321.136 L 348.641 319.446 347.782 319.446 C 344.870 319.446,344.931 319.694,344.806 307.299 L 344.699 296.750 344.179 295.733 C 342.266 291.989,335.895 290.083,329.781 291.427 M289.658 304.688 L 289.718 317.421 290.271 318.594 C 293.051 324.488,302.576 325.032,307.637 319.584 L 309.217 317.883 309.217 319.943 L 309.217 322.003 311.348 322.003 L 313.479 322.003 313.479 306.979 L 313.479 291.955 311.148 291.955 L 308.817 291.955 308.741 301.918 C 308.657 313.053,308.648 313.123,306.994 315.708 C 304.061 320.293,296.893 320.424,294.800 315.931 L 294.304 314.864 294.301 303.410 L 294.299 291.955 291.949 291.955 L 289.598 291.955 289.658 304.688 M340.289 310.442 C 340.165 314.964,339.228 316.570,335.770 318.189 C 330.248 320.773,324.874 318.520,325.254 313.781 C 325.498 310.747,327.578 309.465,333.724 308.559 C 336.679 308.124,339.126 307.599,339.691 307.280 C 340.335 306.915,340.380 307.148,340.289 310.442 " stroke="none" fill="#fbfbfb" fill-rule="evenodd"></path><path id="path3" d="M145.361 0.433 C 126.451 1.914,108.429 11.610,97.891 25.973 C 97.858 26.018,96.941 25.213,95.852 24.185 C 60.196 -9.480,2.131 14.088,0.290 62.973 C -0.891 94.345,24.824 121.663,55.555 121.683 C 56.907 121.684,56.455 120.829,59.353 128.862 C 62.243 136.870,62.085 135.760,60.469 136.729 C 19.727 161.155,3.552 236.789,23.876 307.832 C 33.107 340.096,52.313 370.164,68.652 377.931 C 86.422 386.377,129.393 389.301,191.050 386.258 C 236.055 384.037,280.674 380.522,341.396 374.414 C 352.481 373.299,353.842 373.123,355.567 372.579 C 368.432 368.526,361.808 354.002,342.064 342.974 C 340.001 341.822,339.823 341.761,339.357 342.048 C 339.083 342.217,337.679 343.117,336.238 344.049 C 328.167 349.266,319.986 352.202,309.110 353.784 C 306.548 354.157,296.968 354.157,294.406 353.784 C 287.586 352.792,283.813 351.829,278.210 349.649 C 268.657 345.932,259.779 339.588,252.931 331.586 L 251.557 329.980 250.605 330.278 C 246.323 331.620,236.530 328.738,228.393 323.741 C 227.599 323.254,226.903 322.856,226.846 322.856 C 226.788 322.856,227.221 323.813,227.808 324.983 C 228.396 326.153,228.876 327.145,228.876 327.188 C 228.876 327.318,227.173 328.044,227.088 327.950 C 226.595 327.408,224.149 321.773,224.269 321.458 C 224.328 321.304,223.586 320.612,222.522 319.827 C 211.099 311.404,201.136 298.796,192.794 282.206 C 191.483 279.599,190.362 277.468,190.304 277.472 C 190.245 277.476,189.584 278.395,188.835 279.514 C 175.763 299.040,154.929 290.266,148.125 262.370 C 142.559 239.547,149.862 210.998,163.173 203.549 C 163.824 203.185,155.697 185.685,150.317 175.865 C 143.978 164.295,136.059 152.814,129.750 146.047 L 128.722 144.944 129.961 142.318 C 130.643 140.873,132.422 137.091,133.915 133.913 L 136.629 128.135 137.953 128.412 C 148.839 130.694,162.818 129.444,173.775 125.209 C 217.059 108.480,229.409 53.667,197.384 20.419 C 183.857 6.377,164.487 -1.065,145.361 0.433 M145.978 17.576 C 183.128 24.326,200.002 68.100,177.196 98.562 C 159.042 122.810,124.260 125.020,103.184 103.264 C 76.219 75.429,89.236 27.967,126.448 18.438 C 132.025 17.010,140.744 16.625,145.978 17.576 M52.301 23.337 C 66.528 25.202,79.528 35.041,85.572 48.517 L 86.543 50.684 86.098 52.991 C 84.463 61.462,84.649 70.434,86.646 79.422 L 87.176 81.806 86.512 83.527 C 73.141 118.199,25.403 120.338,8.964 87.002 C -6.557 55.527,18.382 18.891,52.301 23.337 M100.689 107.080 C 104.538 111.505,108.892 115.339,113.842 118.663 C 114.745 119.269,115.535 119.766,115.598 119.766 C 115.660 119.766,116.518 120.228,117.503 120.793 L 119.295 121.820 116.886 127.026 C 115.561 129.890,114.397 132.232,114.298 132.232 C 113.903 132.232,111.051 130.318,110.967 129.997 C 110.772 129.251,104.475 127.467,100.373 126.995 C 95.526 126.437,82.750 127.560,79.426 128.835 C 79.196 128.924,78.679 127.722,77.281 123.849 C 75.280 118.305,75.334 118.487,75.674 118.487 C 76.174 118.487,80.366 116.680,83.005 115.326 C 87.852 112.841,92.278 109.671,96.213 105.866 L 98.135 104.008 98.668 104.688 C 98.961 105.063,99.870 106.139,100.689 107.080 M51.342 158.679 C 52.351 167.616,56.441 173.473,64.537 177.573 L 66.741 178.689 71.250 178.758 C 86.311 178.986,94.756 172.824,100.254 157.592 C 100.677 156.420,101.153 155.173,101.310 154.822 L 101.597 154.182 102.038 155.674 C 106.811 171.823,98.029 187.167,81.683 191.237 C 77.546 192.267,70.428 192.617,68.381 191.891 C 67.868 191.709,65.734 191.081,63.639 190.497 C 61.544 189.912,59.435 189.233,58.951 188.988 C 47.042 182.959,42.646 166.038,50.158 155.141 L 50.819 154.182 50.959 155.354 C 51.036 155.999,51.209 157.495,51.342 158.679 M124.347 209.495 C 134.056 214.053,132.156 235.882,121.979 236.709 C 112.117 237.510,108.522 217.237,117.312 210.389 C 119.403 208.760,122.062 208.422,124.347 209.495 M140.063 283.516 C 148.212 287.406,151.490 304.848,146.201 316.168 C 139.336 330.860,125.743 323.553,124.944 304.742 C 124.345 290.649,132.125 279.727,140.063 283.516 M200.273 318.501 C 211.020 320.932,216.172 335.552,209.996 346.090 C 204.448 355.555,191.729 356.596,184.997 348.136 C 174.591 335.058,184.917 315.027,200.273 318.501 M233.833 335.589 C 234.603 336.731,235.499 338.031,235.826 338.477 L 236.419 339.288 235.791 339.801 C 234.776 340.631,234.923 340.761,232.033 336.461 C 230.576 334.293,230.614 334.467,231.486 333.935 C 232.419 333.366,232.262 333.256,233.833 335.589 M245.334 350.609 L 244.643 351.300 242.038 348.695 L 239.433 346.091 240.175 345.461 L 240.916 344.832 243.471 347.374 L 246.026 349.917 245.334 350.609 M253.359 355.961 C 254.368 356.704,255.646 357.617,256.197 357.989 L 257.200 358.665 256.762 359.407 C 256.521 359.815,256.207 360.149,256.064 360.149 C 255.801 360.149,252.434 357.824,250.971 356.633 L 250.186 355.994 250.734 355.301 C 251.424 354.430,251.206 354.375,253.359 355.961 M351.585 356.092 C 352.303 357.063,352.480 356.874,348.128 359.798 L 346.230 361.074 345.732 360.452 C 345.012 359.553,345.061 359.463,346.916 358.245 C 347.842 357.637,349.106 356.761,349.725 356.300 C 351.071 355.296,351.002 355.304,351.585 356.092 M266.513 363.804 C 268.258 364.642,269.711 365.346,269.742 365.369 C 269.797 365.411,269.168 367.011,269.044 367.144 C 268.979 367.213,262.770 364.280,262.581 364.091 C 262.494 364.003,263.174 362.280,263.296 362.280 C 263.321 362.280,264.769 362.966,266.513 363.804 M339.372 363.774 C 339.584 364.244,339.719 364.664,339.671 364.707 C 339.305 365.041,333.645 367.608,333.277 367.608 C 332.981 367.608,332.375 366.098,332.591 365.897 C 332.687 365.807,333.484 365.433,334.363 365.065 C 335.242 364.698,336.585 364.071,337.347 363.673 C 339.073 362.771,338.916 362.763,339.372 363.774 M280.234 368.941 C 281.934 369.410,283.344 369.808,283.367 369.826 C 283.800 370.163,282.852 371.658,282.284 371.534 C 280.581 371.166,276.276 369.915,276.099 369.737 C 275.761 369.400,276.405 367.775,276.808 367.946 C 276.993 368.024,278.535 368.472,280.234 368.941 M326.026 369.299 C 326.161 369.702,326.198 370.100,326.108 370.183 C 325.849 370.425,319.242 372.059,319.151 371.904 C 319.106 371.827,319.005 371.375,318.926 370.899 L 318.783 370.035 320.127 369.759 C 320.866 369.608,322.381 369.222,323.495 368.903 C 325.721 368.264,325.677 368.257,326.026 369.299 M294.278 371.470 L 297.516 371.747 297.453 372.699 L 297.389 373.652 296.004 373.595 C 295.242 373.564,293.612 373.426,292.381 373.288 L 290.144 373.038 290.219 372.187 C 290.308 371.172,290.418 370.955,290.774 371.091 C 290.921 371.147,292.498 371.318,294.278 371.470 M311.860 372.112 C 312.050 373.295,311.845 373.360,306.954 373.668 L 304.799 373.804 304.656 372.915 C 304.473 371.769,304.292 371.852,307.447 371.631 C 308.948 371.526,310.368 371.406,310.602 371.364 C 311.655 371.178,311.717 371.215,311.860 372.112 " stroke="none" fill="#94db2c" fill-rule="evenodd"></path><path id="path4" d="M306.873 105.702 C 257.369 110.828,223.122 172.688,231.958 241.021 C 232.117 242.251,232.202 243.330,232.147 243.419 C 232.092 243.508,232.137 243.580,232.247 243.580 C 232.357 243.580,232.566 243.292,232.712 242.941 C 232.857 242.589,233.040 242.302,233.118 242.302 C 233.196 242.302,233.415 242.038,233.606 241.716 C 233.797 241.393,234.129 240.926,234.345 240.678 C 234.560 240.430,234.966 239.927,235.248 239.560 C 235.844 238.781,235.861 238.778,236.510 239.319 L 237.005 239.731 236.404 240.537 C 236.073 240.980,235.706 241.446,235.589 241.572 C 235.471 241.699,234.896 242.534,234.310 243.428 C 233.170 245.166,233.012 245.260,232.118 244.727 L 231.540 244.382 232.021 244.783 C 232.425 245.119,232.588 245.695,233.030 248.343 C 234.223 255.500,235.909 262.635,238.148 270.005 C 239.454 274.301,239.626 274.665,239.851 273.596 C 240.364 271.151,242.205 266.163,243.917 262.579 L 245.276 259.735 244.752 256.506 C 243.785 250.547,243.076 243.435,242.807 237.011 L 242.661 233.532 244.832 231.354 L 247.003 229.175 246.410 228.658 L 245.818 228.141 246.292 228.657 L 246.766 229.173 244.448 231.475 C 241.960 233.946,241.820 234.024,241.196 233.305 L 240.787 232.833 243.140 230.482 C 245.855 227.769,246.493 227.041,244.315 229.142 C 243.495 229.933,242.739 230.581,242.635 230.581 C 242.527 230.581,242.504 228.010,242.581 224.560 C 243.555 180.978,258.236 143.487,281.729 124.589 C 291.751 116.527,301.397 112.093,312.946 110.238 C 318.963 109.272,333.068 110.060,337.009 111.582 C 337.294 111.693,337.370 111.665,337.263 111.491 C 337.178 111.354,336.984 111.241,336.831 111.241 C 336.679 111.241,335.711 110.852,334.680 110.375 C 326.905 106.783,315.285 104.830,306.873 105.702 M340.117 152.078 C 313.866 155.307,292.162 180.233,287.349 212.680 C 287.087 214.445,286.966 216.891,286.919 221.425 L 286.853 227.720 289.244 227.237 C 292.839 226.511,296.764 226.111,300.799 226.060 C 303.755 226.023,303.974 226.002,301.992 225.946 L 299.562 225.878 299.702 222.619 C 301.228 187.217,328.902 158.284,353.934 165.919 C 361.065 168.094,366.840 174.320,369.512 182.715 C 372.000 190.533,371.716 200.064,368.781 207.192 C 368.659 207.489,368.737 207.565,369.161 207.565 C 370.406 207.565,373.664 208.804,375.599 210.014 C 376.185 210.380,376.788 210.753,376.938 210.844 C 377.514 211.191,379.546 205.774,380.375 201.679 C 383.785 184.831,377.668 167.060,365.528 158.549 C 358.489 153.614,348.438 151.055,340.117 152.078 M344.573 191.108 C 336.624 193.255,332.602 204.038,336.227 213.486 C 336.310 213.702,336.268 213.762,336.104 213.661 C 335.967 213.576,335.855 213.551,335.855 213.605 C 335.855 213.659,336.952 214.249,338.293 214.916 L 340.731 216.128 340.396 216.832 L 340.060 217.535 338.937 216.919 C 337.384 216.067,337.381 216.092,338.802 217.960 C 340.774 220.550,343.455 222.852,346.016 224.154 C 346.676 224.490,346.931 224.761,346.997 225.197 C 347.046 225.521,347.100 225.205,347.118 224.494 C 347.158 222.865,347.876 219.964,348.620 218.422 C 349.128 217.369,349.150 217.236,348.822 217.211 C 347.726 217.129,344.677 214.555,343.294 212.545 C 339.456 206.966,339.767 200.520,344.087 196.113 C 347.143 192.995,350.685 192.572,353.965 194.932 L 354.493 195.312 354.032 194.659 C 351.891 191.628,348.023 190.177,344.573 191.108 M298.684 207.256 C 298.866 208.227,299.163 208.127,295.371 208.378 C 291.693 208.623,291.742 208.631,291.742 207.780 C 291.742 207.005,292.062 206.894,294.832 206.709 C 298.833 206.442,298.523 206.398,298.684 207.256 M306.057 207.405 C 306.022 208.383,306.040 208.417,306.606 208.389 C 307.091 208.365,307.111 208.344,306.724 208.269 C 306.349 208.196,306.241 208.002,306.176 207.286 L 306.095 206.393 306.057 207.405 M307.241 206.654 C 307.619 206.701,308.290 206.701,308.733 206.655 C 309.175 206.609,308.865 206.571,308.045 206.570 C 307.224 206.569,306.863 206.606,307.241 206.654 M310.336 206.860 C 310.541 206.913,310.876 206.913,311.082 206.860 C 311.287 206.806,311.119 206.762,310.709 206.762 C 310.298 206.762,310.131 206.806,310.336 206.860 M311.936 207.077 C 312.202 207.128,312.585 207.126,312.789 207.072 C 312.993 207.019,312.776 206.977,312.307 206.980 C 311.838 206.982,311.671 207.026,311.936 207.077 M364.897 207.296 C 365.457 207.340,366.321 207.339,366.815 207.295 C 367.310 207.250,366.851 207.214,365.796 207.215 C 364.742 207.215,364.337 207.252,364.897 207.296 M313.087 208.013 L 313.053 208.781 311.934 208.719 L 310.815 208.656 311.881 208.828 C 313.147 209.032,313.325 208.916,313.209 207.965 L 313.121 207.246 313.087 208.013 M309.164 208.568 C 309.427 208.619,309.859 208.619,310.123 208.568 C 310.386 208.517,310.170 208.476,309.643 208.476 C 309.116 208.476,308.900 208.517,309.164 208.568 M321.790 208.834 C 321.966 208.953,322.294 209.052,322.518 209.054 C 323.063 209.058,322.893 208.936,322.110 208.761 C 321.643 208.656,321.557 208.676,321.790 208.834 M279.382 209.270 C 278.943 209.411,278.924 209.444,279.275 209.459 C 279.510 209.469,279.845 209.384,280.021 209.270 C 280.395 209.029,280.135 209.029,279.382 209.270 M284.513 209.605 C 284.504 209.731,284.137 209.939,283.697 210.067 L 282.898 210.301 283.751 210.183 C 284.751 210.046,284.789 210.023,284.642 209.656 C 284.581 209.503,284.523 209.480,284.513 209.605 M326.265 210.113 C 326.441 210.232,326.746 210.331,326.942 210.332 C 327.139 210.334,327.343 210.503,327.397 210.709 C 327.485 211.045,327.497 211.046,327.519 210.721 C 327.548 210.303,327.450 210.232,326.585 210.039 C 326.118 209.935,326.032 209.955,326.265 210.113 M320.742 210.412 C 320.791 210.454,321.119 210.553,321.470 210.632 C 321.937 210.736,322.024 210.716,321.790 210.558 C 321.502 210.364,320.528 210.228,320.742 210.412 M278.530 211.411 C 278.296 211.569,278.382 211.589,278.849 211.484 C 279.633 211.309,279.803 211.187,279.258 211.191 C 279.033 211.193,278.705 211.292,278.530 211.411 M268.620 213.094 C 268.151 213.316,267.828 213.505,267.902 213.515 C 268.108 213.542,269.579 212.900,269.579 212.784 C 269.579 212.641,269.578 212.641,268.620 213.094 M334.055 213.779 C 333.768 214.496,333.754 214.698,333.979 214.841 C 334.420 215.121,334.694 215.052,334.309 214.758 C 333.755 214.334,334.381 212.986,334.983 213.309 C 335.616 213.648,335.826 213.561,335.216 213.213 C 334.467 212.784,334.450 212.792,334.055 213.779 M265.956 214.278 C 265.429 214.561,265.093 214.792,265.210 214.792 C 265.328 214.792,265.855 214.561,266.383 214.278 C 266.910 213.996,267.246 213.765,267.128 213.765 C 267.011 213.765,266.484 213.996,265.956 214.278 M269.858 214.462 C 268.349 215.098,268.122 215.384,269.579 214.813 C 270.224 214.561,270.842 214.265,270.954 214.156 C 271.219 213.897,271.159 213.913,269.858 214.462 M267.022 215.770 C 266.494 216.052,266.159 216.283,266.276 216.283 C 266.393 216.283,266.921 216.052,267.448 215.770 C 267.975 215.487,268.311 215.256,268.194 215.256 C 268.077 215.256,267.549 215.487,267.022 215.770 M336.068 215.770 C 336.596 216.052,337.123 216.283,337.240 216.283 C 337.357 216.283,337.022 216.052,336.494 215.770 C 335.967 215.487,335.440 215.256,335.322 215.256 C 335.205 215.256,335.541 215.487,336.068 215.770 M256.580 219.529 L 256.047 219.976 256.639 219.622 C 256.965 219.428,257.339 219.335,257.471 219.417 C 257.618 219.507,257.652 219.469,257.559 219.319 C 257.349 218.980,257.195 219.013,256.580 219.529 M257.864 220.103 C 257.997 220.377,258.074 220.627,258.035 220.657 C 257.997 220.688,257.198 221.224,256.260 221.848 C 255.322 222.472,254.129 223.305,253.609 223.699 C 253.049 224.123,252.527 224.364,252.331 224.289 C 252.067 224.189,252.052 224.217,252.259 224.426 C 252.466 224.634,252.687 224.567,253.325 224.100 C 253.767 223.776,255.064 222.882,256.207 222.112 C 258.463 220.593,258.437 220.624,257.953 220.019 C 257.637 219.625,257.633 219.629,257.864 220.103 M252.696 222.125 C 251.386 223.081,251.257 223.333,251.838 223.789 C 252.176 224.054,252.184 224.046,251.918 223.708 C 251.553 223.242,251.770 222.946,253.084 222.116 C 253.600 221.790,254.022 221.452,254.022 221.364 C 254.023 221.149,254.075 221.119,252.696 222.125 M384.519 225.999 C 384.518 227.054,384.554 227.512,384.599 227.018 C 384.644 226.523,384.644 225.660,384.600 225.100 C 384.556 224.539,384.520 224.944,384.519 225.999 M306.713 226.252 C 306.918 226.306,307.254 226.306,307.459 226.252 C 307.664 226.199,307.496 226.155,307.086 226.155 C 306.676 226.155,306.508 226.199,306.713 226.252 M256.573 244.592 L 255.194 246.031 256.633 244.652 C 257.969 243.371,258.169 243.154,258.012 243.154 C 257.979 243.154,257.332 243.801,256.573 244.592 M347.150 244.965 C 347.905 245.727,348.571 246.351,348.629 246.351 C 348.688 246.351,348.118 245.727,347.363 244.965 C 346.608 244.204,345.942 243.580,345.883 243.580 C 345.825 243.580,346.395 244.204,347.150 244.965 M366.169 244.793 C 366.375 244.846,366.710 244.846,366.915 244.793 C 367.120 244.739,366.953 244.695,366.542 244.695 C 366.132 244.695,365.964 244.739,366.169 244.793 M227.312 251.625 C 226.977 252.363,227.190 252.215,227.712 251.348 C 227.920 251.002,227.973 251.002,228.632 251.343 C 229.210 251.641,229.287 251.759,229.074 252.016 C 228.931 252.188,228.856 252.369,228.907 252.420 C 228.957 252.470,229.116 252.323,229.260 252.093 C 229.490 251.725,229.438 251.625,228.825 251.251 C 227.874 250.671,227.730 250.707,227.312 251.625 M376.143 252.311 C 376.324 252.417,376.700 252.989,376.978 253.582 C 377.256 254.175,377.519 254.624,377.564 254.580 C 377.757 254.387,376.442 252.105,376.141 252.111 C 375.846 252.117,375.846 252.137,376.143 252.311 M375.121 252.598 L 374.643 252.864 375.372 254.349 C 375.772 255.166,376.107 255.759,376.116 255.667 C 376.125 255.575,375.892 255.027,375.599 254.449 C 374.967 253.200,374.948 252.987,375.440 252.614 C 375.909 252.258,375.748 252.250,375.121 252.598 M225.933 254.352 C 225.291 255.674,225.362 255.859,226.024 254.588 C 226.319 254.019,226.525 253.518,226.480 253.473 C 226.435 253.429,226.189 253.824,225.933 254.352 M227.424 255.418 C 226.782 256.739,226.854 256.924,227.515 255.653 C 227.811 255.085,228.016 254.584,227.972 254.539 C 227.927 254.494,227.681 254.890,227.424 255.418 M224.851 256.719 C 224.589 257.292,224.785 257.644,225.360 257.635 C 225.477 257.634,225.404 257.534,225.198 257.414 C 224.898 257.239,224.870 257.111,225.056 256.763 C 225.183 256.525,225.247 256.290,225.198 256.241 C 225.149 256.192,224.993 256.407,224.851 256.719 M226.533 257.321 C 226.390 257.698,226.223 257.815,225.952 257.728 C 225.634 257.625,225.624 257.642,225.892 257.835 C 226.371 258.179,226.469 258.131,226.713 257.432 C 226.980 256.665,226.820 256.567,226.533 257.321 M376.789 257.255 C 376.761 257.486,377.598 259.350,377.730 259.350 C 378.877 259.350,379.508 258.495,378.987 257.645 C 378.767 257.287,378.708 257.252,378.805 257.539 C 379.171 258.609,379.159 258.654,378.443 258.903 C 378.054 259.039,377.707 259.075,377.673 258.984 C 377.478 258.454,376.803 257.135,376.789 257.255 M376.407 264.131 C 373.243 266.411,370.440 268.146,366.458 270.290 C 363.973 271.627,363.215 272.130,363.334 272.363 C 363.420 272.531,363.618 273.245,363.774 273.948 C 363.931 274.651,364.082 275.258,364.110 275.297 C 364.197 275.415,367.793 272.935,369.952 271.269 C 372.775 269.091,379.226 262.731,378.877 262.471 C 378.832 262.437,377.721 263.184,376.407 264.131 M221.917 264.580 C 221.847 264.761,221.851 264.969,221.924 265.042 C 221.997 265.115,222.056 265.022,222.056 264.835 C 222.056 264.649,222.224 264.452,222.429 264.398 C 222.779 264.307,222.779 264.299,222.423 264.276 C 222.214 264.263,221.986 264.399,221.917 264.580 M223.042 266.924 C 222.969 267.114,222.917 267.430,222.927 267.625 C 222.937 267.821,223.030 267.698,223.133 267.352 C 223.334 266.680,223.263 266.347,223.042 266.924 M221.016 267.484 C 221.002 267.679,220.936 268.015,220.868 268.230 C 220.752 268.600,220.758 268.600,220.989 268.241 C 221.123 268.032,221.189 267.696,221.137 267.495 C 221.050 267.165,221.038 267.164,221.016 267.484 M220.139 270.926 C 220.139 271.236,221.148 271.625,221.371 271.401 C 221.436 271.337,221.335 271.284,221.148 271.284 C 220.961 271.284,220.658 271.133,220.473 270.949 C 220.190 270.666,220.139 270.662,220.139 270.926 M219.286 278.613 C 219.286 278.659,219.615 278.734,220.017 278.781 C 220.419 278.828,220.701 278.791,220.644 278.698 C 220.541 278.531,219.286 278.452,219.286 278.613 M218.701 279.489 C 218.703 279.957,218.747 280.124,218.797 279.859 C 218.848 279.594,218.847 279.210,218.793 279.007 C 218.740 278.803,218.698 279.020,218.701 279.489 M220.410 280.021 C 220.410 280.549,220.451 280.765,220.502 280.501 C 220.553 280.237,220.553 279.806,220.502 279.542 C 220.451 279.278,220.410 279.494,220.410 280.021 M220.197 282.152 C 220.197 282.680,220.238 282.896,220.289 282.632 C 220.340 282.368,220.340 281.937,220.289 281.673 C 220.238 281.409,220.197 281.625,220.197 282.152 M218.290 283.751 C 218.291 284.571,218.330 284.881,218.376 284.439 C 218.422 283.996,218.421 283.325,218.374 282.947 C 218.327 282.568,218.290 282.930,218.290 283.751 M237.876 284.497 C 237.876 284.907,237.920 285.075,237.973 284.869 C 238.027 284.664,238.027 284.329,237.973 284.124 C 237.920 283.918,237.876 284.086,237.876 284.497 M365.526 284.497 C 365.526 284.907,365.570 285.075,365.624 284.869 C 365.677 284.664,365.677 284.329,365.624 284.124 C 365.570 283.918,365.526 284.086,365.526 284.497 M219.925 285.124 C 219.925 285.456,219.746 285.554,219.020 285.619 L 218.114 285.701 219.126 285.738 C 220.074 285.773,220.139 285.741,220.139 285.242 C 220.139 284.949,220.091 284.710,220.032 284.710 C 219.973 284.710,219.925 284.896,219.925 285.124 M237.698 290.037 C 237.698 291.737,237.731 292.432,237.771 291.582 C 237.812 290.733,237.812 289.342,237.771 288.492 C 237.731 287.643,237.698 288.338,237.698 290.037 M365.775 290.037 C 365.775 291.737,365.808 292.432,365.848 291.582 C 365.889 290.733,365.889 289.342,365.848 288.492 C 365.808 287.643,365.775 288.338,365.775 290.037 M218.061 293.767 C 218.064 294.235,218.107 294.402,218.158 294.137 C 218.209 293.872,218.207 293.488,218.154 293.285 C 218.101 293.081,218.059 293.298,218.061 293.767 M219.975 294.726 C 219.975 295.136,220.019 295.304,220.072 295.099 C 220.126 294.893,220.126 294.558,220.072 294.353 C 220.019 294.148,219.975 294.315,219.975 294.726 M218.290 296.324 C 218.291 297.144,218.330 297.454,218.376 297.012 C 218.422 296.570,218.421 295.898,218.374 295.520 C 218.327 295.142,218.290 295.503,218.290 296.324 M237.876 295.578 C 237.876 295.988,237.920 296.156,237.973 295.951 C 238.027 295.746,238.027 295.410,237.973 295.205 C 237.920 295.000,237.876 295.168,237.876 295.578 M220.197 297.922 C 220.197 298.450,220.238 298.665,220.289 298.402 C 220.340 298.138,220.340 297.706,220.289 297.443 C 220.238 297.179,220.197 297.395,220.197 297.922 M221.337 307.249 C 221.469 307.335,221.646 307.724,221.730 308.113 C 221.935 309.056,222.077 308.872,221.915 307.874 C 221.829 307.340,221.676 307.087,221.443 307.089 C 221.220 307.091,221.182 307.148,221.337 307.249 M220.908 312.094 C 221.083 312.877,221.205 313.047,221.201 312.502 C 221.199 312.278,221.100 311.950,220.981 311.774 C 220.823 311.541,220.803 311.627,220.908 312.094 M222.912 312.538 C 222.914 312.762,223.013 313.090,223.132 313.266 C 223.290 313.499,223.309 313.413,223.205 312.946 C 223.030 312.163,222.908 311.993,222.912 312.538 M225.253 320.955 C 225.000 321.132,225.029 321.152,225.394 321.050 C 225.777 320.943,225.895 321.047,226.102 321.672 C 226.238 322.085,226.437 322.477,226.543 322.543 C 226.649 322.608,226.563 322.256,226.352 321.759 C 225.930 320.766,225.731 320.620,225.253 320.955 " stroke="none" fill="#93633c" fill-rule="evenodd"></path><path id="path5" d="M103.209 163.772 C 103.211 164.475,103.250 164.737,103.298 164.354 C 103.345 163.971,103.344 163.396,103.296 163.076 C 103.247 162.755,103.208 163.069,103.209 163.772 M103.197 166.116 C 103.199 166.585,103.243 166.752,103.294 166.487 C 103.345 166.222,103.343 165.838,103.290 165.634 C 103.236 165.430,103.195 165.647,103.197 166.116 M91.942 171.817 L 91.316 172.509 92.009 171.883 C 92.654 171.300,92.799 171.124,92.634 171.124 C 92.598 171.124,92.286 171.436,91.942 171.817 M57.317 172.669 C 58.200 173.610,58.391 173.779,58.391 173.619 C 58.391 173.585,57.936 173.130,57.379 172.607 L 56.367 171.657 57.317 172.669 M75.389 192.159 C 75.654 192.210,76.037 192.208,76.241 192.155 C 76.445 192.102,76.228 192.060,75.759 192.062 C 75.290 192.065,75.124 192.108,75.389 192.159 M161.854 204.490 C 145.973 216.448,141.159 250.828,152.155 273.765 C 161.364 292.976,178.013 295.534,188.918 279.414 L 190.360 277.282 189.239 274.763 C 185.250 265.797,181.712 255.704,178.683 244.646 C 176.512 236.724,164.127 203.502,163.352 203.522 C 163.231 203.525,162.557 203.961,161.854 204.490 M294.832 206.709 C 292.062 206.894,291.742 207.005,291.742 207.780 C 291.742 208.631,291.693 208.623,295.371 208.378 C 299.163 208.127,298.866 208.227,298.684 207.256 C 298.523 206.398,298.833 206.442,294.832 206.709 M306.233 207.370 C 306.233 208.304,306.184 208.290,310.262 208.536 C 311.482 208.609,312.598 208.715,312.743 208.770 C 312.916 208.837,313.032 208.588,313.085 208.034 L 313.165 207.197 310.818 206.957 C 309.527 206.825,307.968 206.682,307.352 206.640 L 306.233 206.562 306.233 207.370 M281.939 208.771 C 280.826 209.060,279.579 209.393,279.169 209.511 C 278.759 209.629,278.207 209.778,277.944 209.843 C 277.392 209.977,277.380 210.032,277.703 210.956 C 277.879 211.462,278.031 211.604,278.289 211.502 C 278.707 211.335,281.074 210.687,283.073 210.192 C 284.366 209.872,284.513 209.784,284.408 209.391 C 284.343 209.149,284.288 208.783,284.286 208.578 C 284.283 208.133,284.447 208.119,281.939 208.771 M320.506 209.177 C 320.185 210.023,320.254 210.336,320.763 210.336 C 321.018 210.336,321.522 210.432,321.882 210.550 C 322.241 210.668,323.351 210.994,324.347 211.274 C 325.344 211.555,326.310 211.846,326.494 211.921 C 326.822 212.054,327.332 211.308,327.330 210.699 C 327.329 210.477,325.689 209.880,323.335 209.244 C 322.954 209.141,322.324 208.961,321.935 208.844 C 320.903 208.533,320.736 208.572,320.506 209.177 M119.266 209.254 C 108.761 213.491,110.714 236.654,121.577 236.654 C 130.427 236.654,134.158 219.554,127.043 211.600 C 124.903 209.208,121.744 208.255,119.266 209.254 M269.366 212.895 C 269.079 213.066,266.552 214.233,264.731 215.036 C 263.964 215.374,263.905 215.570,264.323 216.376 L 264.607 216.924 265.974 216.272 C 268.514 215.061,270.015 214.385,270.170 214.381 C 270.696 214.370,270.855 214.014,270.626 213.358 C 270.387 212.673,269.987 212.526,269.366 212.895 M334.268 213.784 C 333.898 214.656,333.807 214.573,336.403 215.734 C 337.584 216.262,338.889 216.884,339.304 217.117 L 340.058 217.541 340.394 216.835 L 340.731 216.129 337.814 214.689 C 336.209 213.897,334.822 213.210,334.732 213.162 C 334.642 213.115,334.433 213.394,334.268 213.784 M255.909 220.097 C 255.247 220.530,254.432 221.095,254.098 221.352 C 253.763 221.609,253.082 222.113,252.584 222.472 C 251.553 223.215,251.541 223.251,252.095 223.972 L 252.502 224.502 253.209 223.976 C 253.598 223.687,254.827 222.833,255.940 222.079 C 257.054 221.324,257.996 220.684,258.034 220.656 C 258.153 220.567,257.429 219.286,257.267 219.298 C 257.182 219.304,256.571 219.664,255.909 220.097 M243.196 230.433 L 240.787 232.833 241.196 233.305 C 241.820 234.024,241.960 233.946,244.435 231.486 L 246.741 229.196 246.236 228.609 C 245.606 227.878,245.991 227.647,243.196 230.433 M235.248 239.565 C 234.966 239.935,234.637 240.343,234.516 240.471 C 234.395 240.599,234.063 241.039,233.777 241.449 C 233.492 241.859,233.136 242.322,232.985 242.477 C 232.835 242.631,232.712 242.832,232.712 242.923 C 232.712 243.014,232.472 243.366,232.180 243.707 L 231.648 244.326 232.127 244.694 C 232.909 245.297,233.192 245.133,234.310 243.428 C 234.896 242.534,235.471 241.699,235.589 241.572 C 235.706 241.446,236.073 240.980,236.404 240.537 L 237.005 239.731 236.510 239.319 C 235.860 238.777,235.844 238.781,235.248 239.565 M227.450 251.731 C 227.031 252.452,226.190 254.187,225.337 256.092 C 224.820 257.245,224.830 257.282,225.753 257.633 C 226.282 257.834,226.339 257.790,226.772 256.840 C 227.024 256.286,227.687 254.896,228.245 253.750 L 229.260 251.667 228.652 251.353 C 227.864 250.946,227.916 250.929,227.450 251.731 M375.440 252.614 C 374.919 253.009,374.928 253.046,376.239 255.824 C 376.883 257.191,377.412 258.376,377.414 258.457 C 377.428 259.098,379.116 259.146,379.116 258.505 C 379.116 257.807,376.421 252.316,376.082 252.324 C 375.934 252.328,375.645 252.458,375.440 252.614 M221.649 266.116 C 221.382 267.025,221.116 267.912,221.058 268.087 C 220.856 268.692,220.352 270.666,220.352 270.847 C 220.352 271.084,221.623 271.527,221.868 271.375 C 221.972 271.311,222.056 271.107,222.056 270.921 C 222.056 270.497,223.238 266.313,223.643 265.302 C 223.735 265.074,223.602 264.887,223.227 264.716 C 222.285 264.287,222.152 264.404,221.649 266.116 M380.654 265.817 C 379.958 266.047,379.847 266.705,380.360 267.555 C 380.431 267.672,380.516 267.960,380.550 268.194 C 380.584 268.428,380.675 268.764,380.751 268.940 C 380.933 269.359,380.926 269.331,381.118 270.377 C 381.209 270.875,381.373 271.337,381.482 271.404 C 381.591 271.471,381.619 271.625,381.545 271.745 C 381.284 272.166,381.930 272.989,382.521 272.989 C 383.947 272.989,383.926 272.629,382.142 266.276 C 381.941 265.562,381.674 265.480,380.654 265.817 M218.688 280.733 C 218.551 281.924,218.408 283.498,218.370 284.230 L 218.300 285.562 219.100 285.562 C 220.021 285.562,219.961 285.776,220.299 281.300 C 220.517 278.409,220.613 278.827,219.697 278.686 L 218.936 278.569 218.688 280.733 M383.424 279.960 C 382.955 280.049,382.942 280.110,383.072 281.582 C 383.146 282.423,383.269 284.022,383.346 285.136 L 383.484 287.160 384.443 287.160 L 385.402 287.160 385.465 285.615 C 385.499 284.766,385.451 284.070,385.358 284.070 C 385.265 284.070,385.183 283.615,385.176 283.058 C 385.130 279.644,385.125 279.634,383.424 279.960 M134.198 283.308 C 123.639 287.650,121.491 311.810,130.835 321.153 C 138.771 329.089,148.740 319.282,148.747 303.532 C 148.753 290.143,141.636 280.249,134.198 283.308 M218.349 295.631 C 218.571 299.763,218.620 299.947,219.505 299.947 L 220.245 299.947 220.210 298.988 C 220.190 298.460,220.109 296.902,220.029 295.525 L 219.883 293.021 219.046 293.021 L 218.209 293.021 218.349 295.631 M383.283 295.844 C 383.212 296.694,383.104 298.013,383.045 298.775 C 382.986 299.536,382.882 300.471,382.814 300.852 C 382.703 301.474,382.741 301.543,383.194 301.533 C 383.471 301.527,383.949 301.583,384.256 301.659 L 384.814 301.797 385.080 299.329 C 385.227 297.971,385.296 296.667,385.234 296.432 C 385.173 296.197,385.209 295.951,385.316 295.885 C 385.422 295.820,385.509 295.436,385.509 295.033 L 385.509 294.299 384.461 294.299 L 383.414 294.299 383.283 295.844 M220.502 307.452 C 220.065 307.518,219.934 307.638,220.009 307.900 C 220.066 308.097,220.269 308.929,220.460 309.750 C 220.651 310.570,220.888 311.481,220.987 311.774 C 221.086 312.067,221.292 312.762,221.445 313.319 C 221.754 314.444,221.724 314.425,222.677 314.093 C 223.183 313.916,223.325 313.764,223.222 313.507 C 223.056 313.090,222.408 310.725,221.916 308.737 C 221.721 307.946,221.456 307.313,221.329 307.331 C 221.202 307.348,220.829 307.403,220.502 307.452 M381.357 308.780 C 381.281 309.018,381.279 309.310,381.352 309.428 C 381.425 309.546,381.402 309.643,381.300 309.643 C 381.162 309.643,380.510 311.684,380.279 312.840 C 380.231 313.082,379.723 314.806,379.624 315.065 C 379.508 315.367,380.725 315.907,381.058 315.701 C 381.162 315.637,381.247 315.706,381.247 315.853 C 381.247 316.388,381.622 315.703,381.963 314.544 C 382.749 311.879,383.147 310.213,383.040 310.040 C 382.978 309.939,383.016 309.856,383.125 309.856 C 383.629 309.856,383.309 308.820,382.765 308.690 C 382.457 308.617,382.046 308.510,381.850 308.452 C 381.622 308.384,381.445 308.502,381.357 308.780 M194.992 318.172 C 183.855 319.503,177.315 333.731,182.798 344.699 C 188.913 356.932,204.736 356.983,210.615 344.788 C 216.873 331.809,207.958 316.621,194.992 318.172 M225.147 321.139 C 224.912 321.233,224.655 321.273,224.575 321.227 C 223.953 320.870,224.904 323.482,226.649 326.927 L 227.174 327.962 227.918 327.607 C 228.828 327.173,228.838 327.376,227.798 325.199 C 227.322 324.203,226.675 322.838,226.359 322.166 C 226.044 321.493,225.738 320.949,225.679 320.955 C 225.621 320.962,225.381 321.045,225.147 321.139 M376.785 322.469 C 376.370 323.479,375.712 324.932,374.880 326.679 L 374.022 328.479 374.807 328.952 C 375.817 329.562,375.698 329.683,377.281 326.412 C 379.065 322.725,379.112 322.557,378.340 322.661 C 378.265 322.671,378.146 322.588,378.074 322.476 C 377.751 321.974,376.990 321.970,376.785 322.469 M231.559 334.019 L 230.797 334.479 231.373 335.327 C 231.690 335.793,232.606 337.112,233.409 338.258 L 234.869 340.340 235.549 339.872 C 235.922 339.614,236.268 339.371,236.318 339.333 C 236.367 339.295,236.210 339.048,235.970 338.784 C 235.729 338.521,234.810 337.238,233.927 335.932 L 232.321 333.559 231.559 334.019 M369.897 335.186 C 369.699 335.521,369.606 335.872,369.691 335.966 C 369.776 336.060,369.736 336.074,369.601 335.997 C 369.385 335.874,369.221 336.060,369.122 336.543 C 369.104 336.628,368.876 336.931,368.615 337.215 C 368.068 337.812,367.977 337.930,366.937 339.391 L 366.165 340.476 366.903 341.064 L 367.640 341.653 368.157 341.168 C 368.441 340.901,368.673 340.555,368.673 340.400 C 368.673 340.244,368.752 340.117,368.847 340.117 C 369.006 340.117,370.816 337.660,371.698 336.250 C 372.054 335.680,372.050 335.667,371.339 335.125 C 370.435 334.436,370.338 334.440,369.897 335.186 M240.186 345.534 L 239.688 346.065 240.547 347.087 C 241.019 347.649,242.134 348.813,243.023 349.673 L 244.640 351.238 245.199 350.574 L 245.757 349.910 243.452 347.518 C 240.834 344.802,240.860 344.817,240.186 345.534 M360.229 347.203 C 359.527 347.936,358.430 349.003,357.793 349.574 C 357.155 350.146,356.626 350.721,356.618 350.853 C 356.603 351.112,357.580 352.264,357.815 352.264 C 358.075 352.264,360.683 349.685,360.629 349.481 C 360.599 349.371,360.695 349.305,360.842 349.334 C 360.988 349.363,361.084 349.267,361.055 349.121 C 361.026 348.974,361.079 348.879,361.174 348.908 C 361.407 348.980,362.920 347.542,362.920 347.249 C 362.920 347.021,361.831 345.871,361.615 345.871 C 361.555 345.871,360.931 346.470,360.229 347.203 M250.880 355.300 C 250.293 356.141,250.198 356.031,253.590 358.448 L 256.034 360.189 256.519 359.583 C 257.177 358.760,257.141 358.646,255.986 357.916 C 255.433 357.566,254.183 356.679,253.207 355.944 C 251.120 354.373,251.462 354.468,250.880 355.300 M350.623 355.704 C 350.447 355.916,345.959 359.043,345.266 359.436 C 345.226 359.458,345.423 359.814,345.703 360.226 L 346.212 360.974 348.463 359.443 C 349.702 358.601,351.021 357.672,351.394 357.379 L 352.073 356.846 351.470 356.128 C 350.975 355.540,350.822 355.464,350.623 355.704 M262.903 363.253 L 262.540 364.013 265.621 365.491 C 269.208 367.212,268.995 367.167,269.323 366.261 C 269.664 365.318,269.677 365.354,268.887 365.041 C 268.506 364.891,267.151 364.256,265.876 363.630 C 263.124 362.281,263.353 362.310,262.903 363.253 M337.880 363.518 C 337.528 363.729,336.174 364.370,334.871 364.943 L 332.501 365.984 332.815 366.743 C 332.988 367.160,333.150 367.524,333.175 367.551 C 333.250 367.634,336.498 366.227,338.142 365.399 L 339.683 364.623 339.328 363.878 C 338.922 363.026,338.764 362.987,337.880 363.518 M276.320 368.529 C 276.247 368.821,276.136 369.194,276.073 369.358 C 275.958 369.658,276.301 369.783,280.577 371.009 C 282.724 371.625,282.928 371.598,283.101 370.676 C 283.181 370.254,283.215 369.889,283.178 369.866 C 283.142 369.842,281.769 369.456,280.128 369.008 C 278.487 368.560,276.989 368.149,276.799 368.096 C 276.567 368.031,276.410 368.172,276.320 368.529 M324.667 368.657 C 324.433 368.753,323.031 369.142,321.552 369.523 L 318.863 370.214 319.029 370.953 C 319.252 371.941,319.198 371.922,320.747 371.555 C 325.904 370.330,326.186 370.205,325.917 369.265 C 325.707 368.532,325.370 368.369,324.667 368.657 M290.390 371.542 C 289.863 372.914,290.011 372.992,293.843 373.362 C 297.298 373.695,297.220 373.709,297.336 372.776 C 297.465 371.741,297.607 371.813,295.094 371.638 C 293.895 371.554,292.377 371.417,291.721 371.333 C 290.707 371.203,290.508 371.234,290.390 371.542 M309.430 371.583 C 309.020 371.621,307.797 371.711,306.713 371.781 L 304.742 371.910 304.742 372.775 L 304.742 373.641 307.352 373.506 C 308.788 373.433,310.396 373.312,310.925 373.238 L 311.888 373.104 311.809 372.274 C 311.722 371.366,311.721 371.366,309.430 371.583 " stroke="none" fill="#769834" fill-rule="evenodd"></path><path id="path6" d="M134.097 17.195 C 134.302 17.249,134.638 17.249,134.843 17.195 C 135.048 17.142,134.880 17.098,134.470 17.098 C 134.060 17.098,133.892 17.142,134.097 17.195 M141.452 17.199 C 141.717 17.250,142.100 17.248,142.304 17.195 C 142.508 17.142,142.291 17.100,141.822 17.102 C 141.353 17.105,141.187 17.148,141.452 17.199 M43.527 23.162 C 43.732 23.216,44.068 23.216,44.273 23.162 C 44.478 23.109,44.310 23.065,43.900 23.065 C 43.490 23.065,43.322 23.109,43.527 23.162 M49.494 23.162 C 49.699 23.216,50.035 23.216,50.240 23.162 C 50.445 23.109,50.277 23.065,49.867 23.065 C 49.457 23.065,49.289 23.109,49.494 23.162 M173.681 32.672 C 173.681 32.709,173.993 33.020,174.374 33.364 L 175.067 33.990 174.441 33.298 C 173.857 32.652,173.681 32.507,173.681 32.672 M17.149 35.429 L 15.663 36.974 17.208 35.488 C 18.058 34.671,18.753 33.975,18.753 33.943 C 18.753 33.787,18.530 33.994,17.149 35.429 M53.863 36.382 C 54.243 36.429,54.867 36.429,55.248 36.382 C 55.629 36.335,55.317 36.296,54.555 36.296 C 53.793 36.296,53.482 36.335,53.863 36.382 M77.357 36.508 C 77.357 36.544,77.669 36.856,78.050 37.200 L 78.743 37.826 78.117 37.134 C 77.533 36.488,77.357 36.343,77.357 36.508 M84.900 64.891 C 84.901 66.532,84.934 67.175,84.975 66.320 C 85.015 65.465,85.015 64.122,84.974 63.336 C 84.933 62.550,84.900 63.250,84.900 64.891 M4.330 64.997 C 4.330 65.759,4.369 66.071,4.416 65.690 C 4.464 65.309,4.464 64.686,4.416 64.305 C 4.369 63.924,4.330 64.235,4.330 64.997 M88.926 64.678 C 88.928 65.264,88.969 65.478,89.018 65.154 C 89.067 64.830,89.066 64.351,89.015 64.089 C 88.965 63.827,88.925 64.092,88.926 64.678 M187.405 67.661 C 187.406 69.419,187.439 70.110,187.479 69.196 C 187.519 68.283,187.519 66.844,187.478 66.000 C 187.438 65.155,187.405 65.903,187.405 67.661 M182.042 65.850 C 182.042 66.260,182.086 66.428,182.139 66.223 C 182.193 66.018,182.193 65.682,182.139 65.477 C 182.086 65.272,182.042 65.440,182.042 65.850 M4.330 68.833 C 4.330 69.595,4.369 69.907,4.416 69.526 C 4.464 69.145,4.464 68.522,4.416 68.141 C 4.369 67.760,4.330 68.071,4.330 68.833 M85.079 70.325 C 85.079 70.735,85.123 70.903,85.176 70.698 C 85.230 70.493,85.230 70.157,85.176 69.952 C 85.123 69.747,85.079 69.915,85.079 70.325 M88.926 70.645 C 88.928 71.231,88.969 71.445,89.018 71.121 C 89.067 70.797,89.066 70.318,89.015 70.056 C 88.965 69.794,88.925 70.059,88.926 70.645 M171.543 93.074 L 170.378 94.299 171.604 93.135 C 172.278 92.494,172.829 91.943,172.829 91.909 C 172.829 91.751,172.625 91.936,171.543 93.074 M76.606 98.508 L 75.120 100.053 76.665 98.567 C 78.100 97.187,78.307 96.963,78.151 96.963 C 78.118 96.963,77.423 97.658,76.606 98.508 M18.540 99.800 C 18.540 99.837,18.852 100.149,19.233 100.493 L 19.925 101.119 19.300 100.426 C 18.716 99.781,18.540 99.636,18.540 99.800 M101.438 101.505 C 101.438 101.542,101.750 101.853,102.131 102.198 L 102.824 102.824 102.198 102.131 C 101.614 101.485,101.438 101.341,101.438 101.505 M172.399 103.942 L 170.378 106.020 172.456 104.000 C 173.599 102.889,174.534 101.954,174.534 101.922 C 174.534 101.768,174.275 102.013,172.399 103.942 M45.658 110.973 C 46.332 111.015,47.435 111.015,48.109 110.973 C 48.783 110.930,48.231 110.896,46.883 110.896 C 45.535 110.896,44.984 110.930,45.658 110.973 M134.952 118.214 C 135.276 118.263,135.756 118.261,136.018 118.211 C 136.280 118.160,136.015 118.120,135.429 118.122 C 134.843 118.123,134.628 118.165,134.952 118.214 M140.493 118.214 C 140.817 118.263,141.296 118.261,141.559 118.211 C 141.821 118.160,141.556 118.120,140.970 118.122 C 140.384 118.123,140.169 118.165,140.493 118.214 M315.064 250.240 L 314.438 250.932 315.131 250.306 C 315.776 249.723,315.921 249.547,315.756 249.547 C 315.720 249.547,315.408 249.859,315.064 250.240 M289.498 303.783 C 289.498 310.346,289.525 313.062,289.558 309.818 C 289.591 306.574,289.591 301.204,289.558 297.884 C 289.525 294.565,289.498 297.219,289.498 303.783 M344.904 307.938 C 344.904 313.154,344.931 315.288,344.965 312.680 C 344.999 310.072,344.999 305.804,344.965 303.197 C 344.931 300.589,344.904 302.722,344.904 307.938 M340.178 300.586 C 340.180 301.172,340.221 301.387,340.270 301.063 C 340.319 300.739,340.318 300.259,340.267 299.997 C 340.217 299.735,340.177 300.000,340.178 300.586 M340.201 309.963 C 340.202 311.604,340.235 312.247,340.276 311.392 C 340.316 310.537,340.316 309.194,340.275 308.408 C 340.234 307.622,340.201 308.322,340.201 309.963 M284.363 319.766 C 284.364 321.055,284.399 321.555,284.441 320.877 C 284.484 320.198,284.483 319.144,284.440 318.532 C 284.397 317.921,284.363 318.476,284.363 319.766 " stroke="none" fill="#bae479" fill-rule="evenodd"></path><path id="path7" d="M144.219 32.622 C 117.865 35.871,105.178 68.282,121.870 89.718 C 141.932 115.481,181.878 100.728,181.883 67.555 C 181.887 46.538,164.224 30.157,144.219 32.622 M50.314 36.785 C 31.174 39.992,20.166 62.267,28.690 80.538 C 39.178 103.016,69.912 103.056,80.979 80.607 C 91.693 58.872,73.517 32.896,50.314 36.785 M50.037 155.521 C 45.530 162.495,45.367 171.245,49.591 179.502 C 52.632 185.448,56.517 188.451,63.719 190.420 C 65.653 190.949,67.666 191.547,68.194 191.749 C 68.986 192.051,69.839 192.111,73.095 192.090 C 92.885 191.966,105.927 177.484,102.725 159.189 C 102.321 156.879,101.689 154.389,101.546 154.540 C 101.510 154.578,101.028 155.807,100.476 157.272 C 94.449 173.247,86.801 178.944,71.639 178.753 L 66.554 178.689 64.550 177.694 C 55.870 173.382,51.744 166.930,50.984 156.479 L 50.826 154.300 50.037 155.521 M309.496 263.506 C 309.497 264.209,309.537 264.471,309.584 264.088 C 309.632 263.705,309.631 263.129,309.582 262.809 C 309.534 262.489,309.495 262.802,309.496 263.506 M346.998 263.506 C 346.999 264.092,347.041 264.306,347.090 263.982 C 347.139 263.658,347.137 263.179,347.087 262.917 C 347.036 262.655,346.996 262.920,346.998 263.506 M332.718 291.047 C 333.278 291.091,334.142 291.090,334.636 291.045 C 335.131 291.001,334.672 290.965,333.617 290.965 C 332.563 290.966,332.158 291.003,332.718 291.047 M290.632 291.900 C 291.369 291.942,292.520 291.942,293.189 291.899 C 293.858 291.857,293.255 291.823,291.849 291.823 C 290.442 291.824,289.895 291.858,290.632 291.900 M309.909 291.900 C 310.583 291.942,311.686 291.942,312.360 291.900 C 313.034 291.857,312.483 291.823,311.135 291.823 C 309.787 291.823,309.235 291.857,309.909 291.900 M333.031 295.515 C 333.295 295.566,333.727 295.566,333.990 295.515 C 334.254 295.465,334.038 295.423,333.511 295.423 C 332.983 295.423,332.768 295.465,333.031 295.515 M321.552 300.753 C 321.644 300.846,322.767 300.893,324.046 300.859 L 326.372 300.797 323.878 300.691 C 322.506 300.633,321.459 300.661,321.552 300.753 M322.309 308.418 L 321.684 309.110 322.376 308.484 C 323.022 307.901,323.167 307.725,323.002 307.725 C 322.965 307.725,322.654 308.037,322.309 308.418 M320.151 314.438 C 320.152 315.141,320.192 315.403,320.240 315.020 C 320.287 314.637,320.286 314.062,320.238 313.742 C 320.189 313.421,320.150 313.735,320.151 314.438 M330.687 319.170 C 330.951 319.221,331.383 319.221,331.646 319.170 C 331.910 319.119,331.694 319.078,331.167 319.078 C 330.639 319.078,330.424 319.119,330.687 319.170 M264.731 322.163 C 268.335 322.196,274.233 322.196,277.837 322.163 C 281.441 322.130,278.492 322.103,271.284 322.103 C 264.076 322.103,261.127 322.130,264.731 322.163 M310.229 322.160 C 310.844 322.203,311.851 322.203,312.467 322.160 C 313.082 322.117,312.579 322.082,311.348 322.082 C 310.117 322.082,309.614 322.117,310.229 322.160 M297.975 323.429 C 298.181 323.482,298.516 323.482,298.721 323.429 C 298.926 323.375,298.759 323.331,298.348 323.331 C 297.938 323.331,297.770 323.375,297.975 323.429 M299.467 323.429 C 299.672 323.482,300.008 323.482,300.213 323.429 C 300.418 323.375,300.250 323.331,299.840 323.331 C 299.430 323.331,299.262 323.375,299.467 323.429 M330.581 323.429 C 330.786 323.482,331.121 323.482,331.327 323.429 C 331.532 323.375,331.364 323.331,330.954 323.331 C 330.543 323.331,330.376 323.375,330.581 323.429 M300.639 354.126 C 301.255 354.169,302.262 354.169,302.877 354.126 C 303.492 354.083,302.989 354.048,301.758 354.048 C 300.527 354.048,300.024 354.083,300.639 354.126 " stroke="none" fill="#3c5c5c" fill-rule="evenodd"></path><path id="path8" d="M171.444 42.195 C 172.021 42.781,172.541 43.261,172.600 43.261 C 172.658 43.261,172.234 42.781,171.657 42.195 C 171.080 41.609,170.559 41.129,170.501 41.129 C 170.442 41.129,170.867 41.609,171.444 42.195 M34.616 45.019 L 33.990 45.711 34.683 45.085 C 35.329 44.502,35.474 44.326,35.309 44.326 C 35.272 44.326,34.961 44.638,34.616 45.019 M182.059 67.661 C 182.060 68.364,182.100 68.626,182.147 68.243 C 182.194 67.860,182.193 67.285,182.145 66.965 C 182.096 66.645,182.057 66.958,182.059 67.661 M74.893 89.132 L 74.267 89.824 74.960 89.198 C 75.606 88.615,75.751 88.439,75.586 88.439 C 75.549 88.439,75.238 88.751,74.893 89.132 M255.079 333.990 C 255.962 334.931,256.153 335.100,256.153 334.940 C 256.153 334.906,255.698 334.451,255.141 333.928 L 254.129 332.978 255.079 333.990 M257.636 336.548 C 258.519 337.489,258.711 337.658,258.711 337.498 C 258.711 337.464,258.255 337.008,257.698 336.485 L 256.686 335.535 257.636 336.548 M239.624 345.893 C 239.544 346.023,239.751 346.382,240.085 346.692 L 240.691 347.256 240.195 346.686 C 239.923 346.372,239.763 346.013,239.841 345.887 C 239.919 345.761,239.935 345.658,239.876 345.658 C 239.817 345.658,239.704 345.764,239.624 345.893 M243.784 347.836 L 245.797 349.908 245.281 350.500 L 244.764 351.092 245.394 350.504 L 246.025 349.917 243.898 347.841 L 241.772 345.765 243.784 347.836 M295.418 353.903 C 295.623 353.956,295.959 353.956,296.164 353.903 C 296.369 353.849,296.201 353.805,295.791 353.805 C 295.381 353.805,295.213 353.849,295.418 353.903 M307.352 353.903 C 307.557 353.956,307.893 353.956,308.098 353.903 C 308.303 353.849,308.135 353.805,307.725 353.805 C 307.315 353.805,307.147 353.849,307.352 353.903 M298.615 354.116 C 298.820 354.170,299.156 354.170,299.361 354.116 C 299.566 354.062,299.398 354.019,298.988 354.019 C 298.578 354.019,298.410 354.062,298.615 354.116 M304.156 354.116 C 304.361 354.170,304.696 354.170,304.901 354.116 C 305.107 354.062,304.939 354.019,304.529 354.019 C 304.118 354.019,303.950 354.062,304.156 354.116 M293.822 371.595 C 294.087 371.645,294.471 371.644,294.675 371.590 C 294.879 371.537,294.662 371.495,294.193 371.498 C 293.724 371.500,293.557 371.544,293.822 371.595 M308.953 371.595 C 309.218 371.645,309.602 371.644,309.805 371.590 C 310.009 371.537,309.792 371.495,309.323 371.498 C 308.855 371.500,308.688 371.544,308.953 371.595 M305.647 371.804 C 305.852 371.857,306.188 371.857,306.393 371.804 C 306.598 371.750,306.430 371.706,306.020 371.706 C 305.610 371.706,305.442 371.750,305.647 371.804 M297.266 372.989 C 297.203 373.447,297.235 373.708,297.342 373.601 C 297.445 373.498,297.495 373.138,297.453 372.802 C 297.383 372.238,297.368 372.253,297.266 372.989 M308.631 373.509 C 308.836 373.562,309.172 373.562,309.377 373.509 C 309.582 373.455,309.414 373.411,309.004 373.411 C 308.594 373.411,308.426 373.455,308.631 373.509 M305.115 373.725 C 305.378 373.776,305.810 373.776,306.074 373.725 C 306.337 373.674,306.121 373.633,305.594 373.633 C 305.067 373.633,304.851 373.674,305.115 373.725 " stroke="none" fill="#6ca444" fill-rule="evenodd"></path></g></svg>